<?xml version="1.0" encoding="utf-8"?>
<!-- Generator: Adobe Illustrator 22.1.0, SVG Export Plug-In . SVG Version: 6.00 Build 0)  -->
<svg version="1.1" id="Слой_1" xmlns="http://www.w3.org/2000/svg" xmlns:xlink="http://www.w3.org/1999/xlink" x="0px" y="0px"
	 viewBox="0 0 819.8 461" style="enable-background:new 0 0 819.8 461;" xml:space="preserve">
<style type="text/css">
	.st0{fill-rule:evenodd;clip-rule:evenodd;fill:#FFFFFF;}
	.st1{fill:#FFFFFF;}
	.st2{fill-rule:evenodd;clip-rule:evenodd;fill:#051E48;}
	.st3{fill:#051E48;}
	.st4{clip-path:url(#SVGID_2_);fill:url(#SVGID_3_);}
	.st5{clip-path:url(#SVGID_5_);fill:url(#SVGID_6_);}
	.st6{clip-path:url(#SVGID_8_);fill:url(#SVGID_9_);}
	.st7{clip-path:url(#SVGID_11_);fill:url(#SVGID_12_);}
	.st8{clip-path:url(#SVGID_14_);fill:url(#SVGID_15_);}
	.st9{clip-path:url(#SVGID_17_);fill:url(#SVGID_18_);}
</style>
<path class="st0" d="M415.9,186.5c31.5-0.8,62.6,19.2,62.6,60.5c0,21.7-18.1,39.4-40.5,39.3c-22.4,0-40.5-17.7-40.5-39.5
	c0-8.2,2-16.1,10.3-16.1c8.4,0,12.1,7.9,12.1,16c-0.1,26.5,37.8,20.2,38-5.1c0-17.9-16.6-39.7-43.4-38.3
	c-18.6,0-33.8,14.7-33.8,32.9c0,54.5-0.1,64.4-0.1,118.8l-8.4-0.1l-8.4,0.1c0-47.2,0-65.5,0-112.7c0-6.7-5.6-12.1-12.4-12.2
	c-6.9,0-12.5,5.4-12.4,12.1c0,1.9,1.7,3.6,3.8,3.6c2.1,0,3.8-1.6,3.8-3.7c0-3,2.5-5.4,5.6-5.4c3.1,0,5.6,2.4,5.6,5.5
	c0,8.1-6.7,14.6-14.9,14.6c-8.2,0-14.9-6.5-14.9-14.5c0-20.7,22.4-27.1,36.3-19.2C370.5,197.6,394.7,187.1,415.9,186.5"/>
<path class="st1" d="M264.3,335.5l-34.2-68.9h20.7l22.7,49.7l18.6-49.7H311l-25.7,63.8c-4.4,10.9-9.2,18.2-14.4,22
	c-5.2,3.7-10.7,5.5-16.6,5.5c-9.5,0-18.3-4.3-26.4-13l12.1-11.2c4.8,5.2,9.6,7.8,14.2,7.8c2.1,0,3.8-0.5,5.2-1.4
	C260.8,339.1,262.5,337.6,264.3,335.5 M154,290.3l-12.3,30.6h24.6L154,290.3z M144.9,266.6h17.8l35.6,89.2H180l-7.2-18.4h-37.7
	l-7.6,18.4h-18.3L144.9,266.6z M17.9,332.6c6.2,6.3,13.5,9.4,21.8,9.4c5.5,0,10-1.1,13.4-3.4c3.4-2.3,5.1-5.3,5.1-9
	c0-3.7-1.7-6.7-5-9.2c-3.3-2.4-10.2-3.6-20.6-3.6h-5v-15.2h5c6.2,0,10.9-1,14.1-3.1c3.2-2.1,4.8-4.8,4.8-8.3c0-3.2-1.3-5.7-4-7.6
	c-2.7-1.9-6.2-2.8-10.6-2.8c-5.2,0-10.6,1.9-16.1,5.7L6.9,274.3c7.4-4.8,13.6-7.7,18.6-8.7c5-1,9.5-1.4,13.7-1.4
	c10,0,18.5,2.1,25.3,6.4c6.8,4.2,10.3,10,10.3,17.2c0,3.2-0.8,6.3-2.3,9.3c-1.5,3-5.8,6.3-12.8,9.6c14.4,4.7,21.6,12.6,21.6,23.8
	c0,8.3-3.8,14.9-11.5,20c-7.7,5-17.5,7.5-29.6,7.5c-7.6,0-14.4-1-20.4-3c-6-2-12.6-6.3-19.7-12.9L17.9,332.6z"/>
<path class="st1" d="M769.3,266.6h50.5v16.6h-33v16.1h33v16.3h-33v23.5h33v16.7h-50.5V266.6z M701.5,315.5v24.2h4.4
	c7.3,0,12.2-0.9,14.6-2.6c2.5-1.7,3.7-4.7,3.7-8.9c0-8.4-6.4-12.7-19.1-12.7H701.5z M683.9,355.9v-89.2h17.6v33.7h3.8
	c7.3,0,13.5,0.8,18.3,2.5c4.9,1.6,9.1,4.8,12.7,9.3c3.6,4.6,5.3,10.1,5.3,16.6c0,6.1-1.5,11.3-4.6,15.5c-3.1,4.3-6.6,7.3-10.7,9
	c-4,1.8-9.6,2.6-16.6,2.6H683.9z M636.5,355.9l-25.6-65.6l-26,65.6h-18.7l35.6-89.2h17.9l35.6,89.2H636.5z M500.7,290.3l-12.3,30.6
	h24.6L500.7,290.3z M491.6,266.6h17.9l35.6,89.2h-18.3l-7.2-18.4h-37.7l-7.6,18.4H456L491.6,266.6z"/>
<path class="st2" d="M207.1,175h-57.4C205.5,88.9,271.9,37.8,343,2.5c13,6.8,16.3,8.5,28.7,15.3C311.4,52.3,255.3,100.6,207.1,175"
	/>
<path class="st2" d="M417.3,97.6c20.7,21.6,42.5,48.4,61.3,77.4h57.4c-27.2-42-57-75.7-88.6-103.3L417.3,97.6z"/>
<path class="st2" d="M276.3,175h-57.4C274.8,88.9,341.1,37.8,412.2,2.5c13,6.8,16.3,8.5,28.7,15.3C380.6,52.3,324.5,100.6,276.3,175
	"/>
<path class="st3" d="M440.9,17.8C380.6,52.3,324.5,100.6,276.3,175h-57.4C274.8,88.9,341.1,37.8,412.2,2.5
	C425.2,9.3,428.4,11,440.9,17.8"/>
<path class="st2" d="M453,66.4c33.9,28.4,65.5,63.5,94.8,108.6h57.3c-36.9-57-78.5-98.7-123-130.5L453,66.4z"/>
<path class="st2" d="M345.5,175h-57.4C344,88.9,410.3,37.8,481.4,2.5c13,6.8,16.3,8.5,28.7,15.3C449.9,52.3,393.8,100.6,345.5,175"
	/>
<path class="st2" d="M487.5,40.1C534.9,72.6,578,114.8,617,175h57.4c-46.5-71.7-100.3-119.2-158-153.4
	C507.3,27,497.1,33.2,487.5,40.1z"/>
<g>
	<defs>
		<path id="SVGID_1_" d="M202.8,172.5h-57.4C201.2,86.4,267.6,35.2,338.7,0c13,6.8,16.3,8.5,28.7,15.3
			C307.1,49.7,251,98.1,202.8,172.5"/>
	</defs>
	<clipPath id="SVGID_2_">
		<use xlink:href="#SVGID_1_"  style="overflow:visible;"/>
	</clipPath>
	<linearGradient id="SVGID_3_" gradientUnits="userSpaceOnUse" x1="142.5487" y1="182.5045" x2="393.4479" y2="-29.6506">
		<stop  offset="0" style="stop-color:#D9DADA"/>
		<stop  offset="1" style="stop-color:#FFFFFF"/>
	</linearGradient>
	<rect x="145.4" class="st4" width="221.9" height="172.5"/>
</g>
<g>
	<defs>
		<path id="SVGID_4_" d="M413,95.1c20.7,21.6,42.5,48.4,61.3,77.4h57.4c-27.2-42-57-75.7-88.6-103.3L413,95.1z"/>
	</defs>
	<clipPath id="SVGID_5_">
		<use xlink:href="#SVGID_4_"  style="overflow:visible;"/>
	</clipPath>
	<linearGradient id="SVGID_6_" gradientUnits="userSpaceOnUse" x1="438.9637" y1="74.3145" x2="510.5" y2="174.0146">
		<stop  offset="0" style="stop-color:#00963F"/>
		<stop  offset="1" style="stop-color:#005B21"/>
	</linearGradient>
	<rect x="413" y="69.2" class="st5" width="118.6" height="103.3"/>
</g>
<g>
	<defs>
		<path id="SVGID_7_" d="M272,172.5h-57.4C270.5,86.4,336.8,35.2,407.9,0c13,6.8,16.3,8.5,28.7,15.3
			C376.3,49.7,320.2,98.1,272,172.5"/>
	</defs>
	<clipPath id="SVGID_8_">
		<use xlink:href="#SVGID_7_"  style="overflow:visible;"/>
	</clipPath>
	<linearGradient id="SVGID_9_" gradientUnits="userSpaceOnUse" x1="413.2095" y1="13.6349" x2="207.7787" y2="183.9199">
		<stop  offset="0" style="stop-color:#005CA9"/>
		<stop  offset="1" style="stop-color:#003561"/>
	</linearGradient>
	<rect x="214.6" class="st6" width="221.9" height="172.5"/>
</g>
<g>
	<defs>
		<path id="SVGID_10_" d="M448.7,63.9c33.9,28.4,65.5,63.5,94.8,108.6h57.4c-36.9-57-78.5-98.7-123-130.5L448.7,63.9z"/>
	</defs>
	<clipPath id="SVGID_11_">
		<use xlink:href="#SVGID_10_"  style="overflow:visible;"/>
	</clipPath>
	<linearGradient id="SVGID_12_" gradientUnits="userSpaceOnUse" x1="596.9349" y1="181.3869" x2="418.3088" y2="-2.2538">
		<stop  offset="0" style="stop-color:#ECECEC"/>
		<stop  offset="1" style="stop-color:#FFFFFF"/>
	</linearGradient>
	<rect x="448.7" y="42" class="st7" width="152.2" height="130.5"/>
</g>
<g>
	<defs>
		<path id="SVGID_13_" d="M341.2,172.5h-57.4C339.7,86.4,406,35.2,477.1,0c13,6.8,16.3,8.5,28.7,15.3
			C445.6,49.7,389.5,98.1,341.2,172.5"/>
	</defs>
	<clipPath id="SVGID_14_">
		<use xlink:href="#SVGID_13_"  style="overflow:visible;"/>
	</clipPath>
	<linearGradient id="SVGID_15_" gradientUnits="userSpaceOnUse" x1="478.39" y1="7.4479" x2="286.3723" y2="188.542">
		<stop  offset="0" style="stop-color:#E44D2E"/>
		<stop  offset="1" style="stop-color:#B8220A"/>
	</linearGradient>
	<rect x="283.9" class="st8" width="222" height="172.5"/>
</g>
<g>
	<defs>
		<path id="SVGID_16_" d="M483.2,37.5c47.3,32.5,90.5,74.8,129.5,135h57.4c-46.5-71.7-100.3-119.2-158-153.4
			C503,24.5,492.8,30.7,483.2,37.5z"/>
	</defs>
	<clipPath id="SVGID_17_">
		<use xlink:href="#SVGID_16_"  style="overflow:visible;"/>
	</clipPath>
	<linearGradient id="SVGID_18_" gradientUnits="userSpaceOnUse" x1="538.7488" y1="47.9671" x2="723.1336" y2="280.5244">
		<stop  offset="0" style="stop-color:#009EE3"/>
		<stop  offset="1" style="stop-color:#005CA9"/>
	</linearGradient>
	<rect x="483.2" y="19.1" class="st9" width="186.9" height="153.4"/>
</g>
<path class="st1" d="M661.3,402v-14.6h-1.6l-7.7,10.9v-10.9h-2V402h1.6l7.7-10.9V402H661.3z M658.6,385.8v-1.6h-5.8v1.6H658.6z
	 M642.7,395.8l-4-8.4h-2l5,10.5l-0.1,0.3c-0.7,1.6-1.6,2.2-3.3,2v1.8c2.4,0.1,4-1,5.1-3.5l4.8-11.2h-2L642.7,395.8z M625,387.4v1.8
	h4.4V402h2v-12.8h4.4v-1.8H625z M621.1,393.6h-7.2v-6.2h-2V402h2v-6.6h7.2v6.6h2v-14.6h-2V393.6z M603.4,389.7l2.7,7.2h-5.3
	L603.4,389.7z M610.1,402l-5.6-14.6h-2.2l-5.6,14.6h2.1l1.2-3.3h6.7l1.2,3.3H610.1z M588,400.2V395h3.6c0.7,0,1.4,0.2,1.9,0.8
	c0.5,0.5,0.8,1.1,0.8,1.9c0,0.8-0.3,1.4-0.8,1.9c-0.5,0.5-1.1,0.8-1.9,0.8H588z M588,393.2v-3.9h7v-1.8H586V402h5.6
	c1.3,0,2.4-0.4,3.3-1.3c0.9-0.9,1.3-1.9,1.3-3.2c0-1.2-0.4-2.3-1.3-3.1c-0.9-0.9-2-1.3-3.3-1.3H588z M577.6,389.7l2.7,7.2h-5.3
	L577.6,389.7z M584.3,402l-5.6-14.6h-2.2l-5.6,14.6h2.1l1.2-3.3h6.7l1.2,3.3H584.3z M563.8,402.3c1.4,0,2.6-0.3,3.8-1
	c1.2-0.6,2-1.5,2.7-2.6l-1.7-1c-0.9,1.6-2.7,2.6-4.7,2.6c-1.7,0-3.1-0.5-4.2-1.6c-1.1-1.1-1.6-2.4-1.6-4.1c0-1.6,0.5-3,1.6-4.1
	c1.1-1.1,2.5-1.6,4.2-1.6c2,0,3.9,1,4.7,2.7l1.7-1c-1.3-2.2-3.7-3.6-6.4-3.6c-2.3,0-4.1,0.7-5.6,2.2c-1.5,1.5-2.2,3.3-2.2,5.4
	c0,2.1,0.7,3.9,2.2,5.4C559.7,401.6,561.6,402.3,563.8,402.3z M548.3,402v-14.6h-1.6l-7.7,10.9v-10.9h-2V402h1.6l7.7-10.9V402H548.3
	z M545.6,385.8v-1.6h-5.7v1.6H545.6z M522.1,394.5h3.4c1.6,0,2.9,1.2,2.9,2.9c0,1.7-1.2,2.9-2.9,2.9h-3.4V394.5z M533.9,402v-14.6
	h-2V402H533.9z M525.6,402c1.4,0,2.5-0.4,3.4-1.3c0.9-0.9,1.4-2,1.4-3.4c0-1.3-0.5-2.4-1.4-3.3c-0.9-0.9-2-1.4-3.4-1.4h-3.4v-5.2h-2
	V402H525.6z M515,393.6h-7.2v-6.2h-2V402h2v-6.6h7.2v6.6h2v-14.6h-2V393.6z M500.6,393.6h-7.2v-6.2h-2V402h2v-6.6h7.2v6.6h2v-14.6
	h-2V393.6z M487,394.7c0,1.6-0.6,2.9-1.7,4.1c-1.1,1.1-2.4,1.6-4.1,1.6c-1.6,0-3-0.5-4.1-1.6c-1.1-1.1-1.6-2.4-1.6-4.1
	c0-1.6,0.6-3,1.6-4.1c1.1-1.1,2.5-1.6,4.1-1.6c1.6,0,3,0.5,4.1,1.6C486.5,391.8,487,393.1,487,394.7z M473.6,394.7
	c0,2.1,0.7,3.9,2.2,5.4c1.5,1.5,3.3,2.2,5.5,2.2c2.2,0,4-0.7,5.5-2.2c1.5-1.5,2.3-3.3,2.3-5.4c0-2.1-0.7-3.9-2.3-5.4
	c-1.5-1.5-3.3-2.2-5.5-2.2c-2.2,0-4,0.7-5.5,2.2C474.3,390.8,473.6,392.6,473.6,394.7z M471.2,402v-14.6h-1.6l-7.7,10.9v-10.9h-2
	V402h1.6l7.7-10.9V402H471.2z M456.1,387.4h-2v12.8h-6.9v-12.8h-2V402h10.4v2.8h2v-4.6h-1.6V387.4z M442,402v-14.6h-1.6l-7.7,10.9
	v-10.9h-2V402h1.6l7.7-10.9V402H442z M418.1,387.4v1.8h4.4V402h2v-12.8h4.4v-1.8H418.1z M410.8,402.3c1.4,0,2.6-0.3,3.8-1
	c1.1-0.6,2-1.5,2.7-2.6l-1.7-1c-0.9,1.6-2.7,2.6-4.7,2.6c-1.7,0-3.1-0.5-4.2-1.6c-1.1-1.1-1.6-2.4-1.6-4.1c0-1.6,0.5-3,1.6-4.1
	c1.1-1.1,2.5-1.6,4.2-1.6c2,0,3.9,1,4.7,2.7l1.7-1c-1.3-2.2-3.7-3.6-6.4-3.6c-2.3,0-4.1,0.7-5.6,2.2c-1.5,1.5-2.2,3.3-2.2,5.4
	c0,2.1,0.7,3.9,2.2,5.4C406.7,401.6,408.5,402.3,410.8,402.3z M394.6,395.6h6.3v-1.8h-6.3v-4.5h6.8v-1.8h-8.8V402h8.9v-1.8h-6.9
	V395.6z M381.5,400.2v-4.7h4.5c0.7,0,1.2,0.2,1.7,0.7c0.5,0.5,0.7,1,0.7,1.7c0,1.3-1,2.4-2.4,2.4H381.5z M385.5,389.2
	c0.6,0,1.1,0.2,1.6,0.7c0.4,0.4,0.7,1,0.7,1.6c0,1.3-1,2.2-2.2,2.2h-4v-4.5H385.5z M388,394.5c1.1-0.7,1.6-1.8,1.6-3
	c0-1.1-0.4-2.1-1.2-2.8c-0.8-0.8-1.8-1.1-3-1.1h-6V402h6.4c1.2,0,2.2-0.4,3.1-1.2c0.8-0.8,1.3-1.8,1.3-2.9
	C390.3,396.3,389.4,395.1,388,394.5z M374.4,393.6h-7.2v-6.2h-2V402h2v-6.6h7.2v6.6h2v-14.6h-2V393.6z M361.9,402v-14.6h-1.6
	l-7.7,10.9v-10.9h-2V402h1.6l7.7-10.9V402H361.9z M342.2,402v-14.6h-1.6l-7.7,10.9v-10.9h-2V402h1.6l7.7-10.9V402H342.2z
	 M339.4,385.8v-1.6h-5.7v1.6H339.4z M327.7,402v-14.6h-1.6l-7.7,10.9v-10.9h-2V402h1.6l7.7-10.9V402H327.7z M307.9,394.5l6.6-7.1
	h-2.4l-6.2,6.6v-6.6h-2V402h2v-7l6.4,7h2.4L307.9,394.5z M295.2,402.3c1.4,0,2.6-0.3,3.8-1c1.2-0.6,2-1.5,2.7-2.6l-1.7-1
	c-0.9,1.6-2.7,2.6-4.7,2.6c-1.7,0-3.1-0.5-4.2-1.6c-1.1-1.1-1.6-2.4-1.6-4.1c0-1.6,0.5-3,1.6-4.1c1.1-1.1,2.5-1.6,4.2-1.6
	c2,0,3.9,1,4.7,2.7l1.7-1c-1.3-2.2-3.7-3.6-6.4-3.6c-2.3,0-4.1,0.7-5.6,2.2c-1.5,1.5-2.2,3.3-2.2,5.4c0,2.1,0.7,3.9,2.2,5.4
	C291.1,401.6,293,402.3,295.2,402.3z M285,402v-14.6h-1.6l-7.7,10.9v-10.9h-2V402h1.6l7.7-10.9V402H285z M282.3,385.8v-1.6h-5.7v1.6
	H282.3z M270.6,402v-14.6H269l-7.7,10.9v-10.9h-2V402h1.6l7.7-10.9V402H270.6z M250.7,402.3c1.4,0,2.6-0.3,3.8-1
	c1.1-0.6,2-1.5,2.7-2.6l-1.7-1c-0.9,1.6-2.7,2.6-4.7,2.6c-1.7,0-3.1-0.5-4.2-1.6c-1.1-1.1-1.6-2.4-1.6-4.1c0-1.6,0.5-3,1.6-4.1
	c1.1-1.1,2.5-1.6,4.2-1.6c2,0,3.9,1,4.7,2.7l1.7-1c-1.3-2.2-3.7-3.6-6.4-3.6c-2.3,0-4.1,0.7-5.6,2.2c-1.5,1.5-2.2,3.3-2.2,5.4
	c0,2.1,0.7,3.9,2.2,5.4C246.5,401.6,248.4,402.3,250.7,402.3z M235,402.3c1.4,0,2.6-0.3,3.8-1c1.1-0.6,2-1.5,2.7-2.6l-1.7-1
	c-0.9,1.6-2.7,2.6-4.7,2.6c-1.7,0-3.1-0.5-4.2-1.6c-1.1-1.1-1.6-2.4-1.6-4.1c0-1.6,0.5-3,1.6-4.1c1.1-1.1,2.5-1.6,4.2-1.6
	c2,0,3.9,1,4.7,2.7l1.7-1c-1.3-2.2-3.7-3.6-6.4-3.6c-2.3,0-4.1,0.7-5.6,2.2c-1.5,1.5-2.2,3.3-2.2,5.4c0,2.1,0.7,3.9,2.2,5.4
	C230.9,401.6,232.8,402.3,235,402.3z M223.7,394.7c0,1.6-0.6,2.9-1.7,4.1c-1.1,1.1-2.4,1.6-4.1,1.6c-1.6,0-3-0.5-4.1-1.6
	c-1.1-1.1-1.6-2.4-1.6-4.1c0-1.6,0.6-3,1.6-4.1c1.1-1.1,2.5-1.6,4.1-1.6c1.6,0,3,0.5,4.1,1.6C223.1,391.8,223.7,393.1,223.7,394.7z
	 M210.2,394.7c0,2.1,0.7,3.9,2.2,5.4c1.5,1.5,3.3,2.2,5.5,2.2c2.2,0,4-0.7,5.5-2.2c1.5-1.5,2.3-3.3,2.3-5.4c0-2.1-0.7-3.9-2.3-5.4
	c-1.5-1.5-3.3-2.2-5.5-2.2c-2.2,0-4,0.7-5.5,2.2C210.9,390.8,210.2,392.6,210.2,394.7z M200.5,395v-5.8h3.4c1.6,0,2.9,1.2,2.9,2.9
	c0,0.8-0.3,1.5-0.8,2.1c-0.5,0.5-1.2,0.8-2,0.8H200.5z M198.5,387.4V402h2v-5.2h3.4c1.4,0,2.5-0.5,3.4-1.4c0.9-0.9,1.4-2,1.4-3.3
	c0-1.3-0.5-2.4-1.4-3.3c-0.9-0.9-2-1.4-3.4-1.4H198.5z M189.2,395.6h6.3v-1.8h-6.3v-4.5h6.8v-1.8h-8.8V402h8.9v-1.8h-6.9V395.6z
	 M178.6,402.3c1.4,0,2.6-0.3,3.8-1c1.2-0.6,2-1.5,2.7-2.6l-1.7-1c-0.9,1.6-2.7,2.6-4.7,2.6c-1.7,0-3.1-0.5-4.2-1.6
	c-1.1-1.1-1.6-2.4-1.6-4.1c0-1.6,0.5-3,1.6-4.1c1.1-1.1,2.5-1.6,4.2-1.6c2,0,3.9,1,4.7,2.7l1.7-1c-1.3-2.2-3.7-3.6-6.4-3.6
	c-2.3,0-4.1,0.7-5.6,2.2c-1.5,1.5-2.2,3.3-2.2,5.4c0,2.1,0.7,3.9,2.2,5.4C174.4,401.6,176.3,402.3,178.6,402.3z M160.4,400.2v-4.7
	h4.5c0.7,0,1.2,0.2,1.7,0.7c0.5,0.5,0.7,1,0.7,1.7c0,1.3-1,2.4-2.4,2.4H160.4z M164.4,389.2c0.6,0,1.1,0.2,1.6,0.7
	c0.4,0.4,0.7,1,0.7,1.6c0,1.3-1,2.2-2.2,2.2h-4v-4.5H164.4z M167,394.5c1.1-0.7,1.6-1.8,1.6-3c0-1.1-0.4-2.1-1.2-2.8
	c-0.8-0.8-1.8-1.1-3-1.1h-6V402h6.4c1.2,0,2.2-0.4,3.1-1.2c0.8-0.8,1.3-1.8,1.3-2.9C169.2,396.3,168.4,395.1,167,394.5z"/>
<path class="st1" d="M583.5,446.1l-4,6.9l-4-6.9h-2.2l5.3,8.7v5.9h2v-5.9l5.3-8.7H583.5z M560.6,455.8c0,1.6,0.5,2.8,1.6,3.8
	c1,0.9,2.4,1.4,4,1.4s3-0.5,4-1.4c1-0.9,1.6-2.2,1.6-3.8v-9.7h-2v9.6c0,2.1-1.3,3.4-3.6,3.4c-2.3,0-3.6-1.3-3.6-3.4v-9.6h-2V455.8z
	 M548.1,446.1v1.8h4.4v12.8h2v-12.8h4.4v-1.8H548.1z M544.2,457l-7.7-10.9h-1.6v14.6h2v-10.9l7.7,10.9h1.6v-14.6h-2V457z
	 M526.4,448.4l2.7,7.2h-5.3L526.4,448.4z M533.1,460.7l-5.6-14.6h-2.2l-5.6,14.6h2.1l1.2-3.3h6.7l1.2,3.3H533.1z M510.1,458.9v-4.7
	h4.4c0.7,0,1.2,0.2,1.7,0.7c0.5,0.5,0.7,1,0.7,1.7c0,1.3-1,2.4-2.4,2.4H510.1z M514.1,447.9c0.6,0,1.1,0.2,1.6,0.7
	c0.4,0.4,0.7,1,0.7,1.6c0,1.3-1,2.2-2.2,2.2h-4v-4.5H514.1z M516.6,453.1c1.1-0.7,1.6-1.8,1.6-3c0-1.1-0.4-2.1-1.2-2.8
	c-0.8-0.8-1.8-1.1-3-1.1h-6v14.6h6.4c1.2,0,2.2-0.4,3.1-1.2c0.8-0.8,1.3-1.8,1.3-2.9C518.9,455,518,453.8,516.6,453.1z M499.6,448.4
	l2.7,7.2H497L499.6,448.4z M506.3,460.7l-5.6-14.6h-2.2l-5.6,14.6h2.1l1.2-3.3h6.7l1.2,3.3H506.3z M487.1,461c1.5,0,2.8-0.4,3.7-1.1
	c1-0.8,1.4-1.8,1.4-3.1c0-0.9-0.2-1.7-0.7-2.2c-0.4-0.4-0.6-0.6-1.2-1c-0.6-0.3-0.7-0.4-1.5-0.7c-0.4-0.1-0.6-0.2-0.8-0.3l-0.9-0.3
	c-1.2-0.4-2-0.7-2.4-1c-0.5-0.3-0.7-0.8-0.7-1.5c0-1.3,1.1-2.2,2.7-2.2c1.6,0,2.7,0.8,3.4,2.3l1.7-0.9c-0.9-1.9-2.7-3.2-5-3.2
	c-1.3,0-2.4,0.4-3.3,1.1c-0.9,0.7-1.4,1.7-1.4,3c0,1.1,0.4,1.9,0.9,2.4c0.2,0.3,0.6,0.5,1.1,0.8c0.5,0.2,0.9,0.4,1.2,0.5l1.4,0.5
	c1.3,0.4,2.2,0.8,2.7,1.1c0.5,0.4,0.8,0.9,0.8,1.6c0,1.4-1.1,2.3-3.2,2.3c-2.1,0-3.4-0.9-4-2.7l-1.7,1
	C482.3,459.6,484.4,461,487.1,461z M464.3,446.1v1.8h4.4v12.8h2v-12.8h4.4v-1.8H464.3z M460.3,457l-7.7-10.9h-1.6v14.6h2v-10.9
	l7.7,10.9h1.6v-14.6h-2V457z M441.8,454.3h6.3v-1.8h-6.3v-4.5h6.8v-1.8h-8.8v14.6h8.9v-1.8h-6.9V454.3z M434.4,446.1l-4.7,7.7
	l-4.7-7.7h-2.2v14.6h2v-11.4l4.9,7.9h0.3l4.9-8v11.4h2v-14.6H434.4z M409.9,446.1v1.8h4.4v12.8h2v-12.8h4.4v-1.8H409.9z M404.2,461
	c1.5,0,2.8-0.4,3.7-1.1c1-0.8,1.4-1.8,1.4-3.1c0-0.9-0.2-1.7-0.7-2.2c-0.4-0.4-0.6-0.6-1.2-1c-0.6-0.3-0.7-0.4-1.5-0.7
	c-0.4-0.1-0.6-0.2-0.8-0.3l-0.9-0.3c-1.2-0.4-2-0.7-2.4-1c-0.5-0.3-0.7-0.8-0.7-1.5c0-1.3,1.1-2.2,2.7-2.2c1.6,0,2.7,0.8,3.4,2.3
	l1.7-0.9c-0.9-1.9-2.7-3.2-5-3.2c-1.3,0-2.4,0.4-3.3,1.1c-0.9,0.7-1.4,1.7-1.4,3c0,1.1,0.4,1.9,0.9,2.4c0.2,0.3,0.6,0.5,1.1,0.8
	c0.5,0.2,0.9,0.4,1.2,0.5l1.4,0.5c1.3,0.4,2.2,0.8,2.7,1.1c0.5,0.4,0.8,0.9,0.8,1.6c0,1.4-1.1,2.3-3.2,2.3c-2.1,0-3.4-0.9-4-2.7
	l-1.7,1C399.3,459.6,401.4,461,404.2,461z M390.1,454.3h6.3v-1.8h-6.3v-4.5h6.8v-1.8h-8.8v14.6h8.9v-1.8h-6.9V454.3z M381,460.7
	l5.3-14.6h-2.2l-4.3,12.2l-4.3-12.2h-2.1l5.3,14.6H381z M369.7,457l-7.7-10.9h-1.6v14.6h2v-10.9l7.7,10.9h1.6v-14.6h-2V457z
	 M355.2,460.7h2v-14.6h-2V460.7z M341.5,448.4l2.7,7.2h-5.3L341.5,448.4z M348.1,460.7l-5.6-14.6h-2.2l-5.6,14.6h2.1l1.2-3.3h6.7
	l1.2,3.3H348.1z M331,460.7h2v-14.6h-2V460.7z M323.6,461c1.5,0,2.8-0.4,3.7-1.1c1-0.8,1.4-1.8,1.4-3.1c0-0.9-0.2-1.7-0.7-2.2
	c-0.4-0.4-0.6-0.6-1.2-1c-0.6-0.3-0.7-0.4-1.5-0.7c-0.4-0.1-0.6-0.2-0.8-0.3l-0.9-0.3c-1.2-0.4-2-0.7-2.4-1
	c-0.5-0.3-0.7-0.8-0.7-1.5c0-1.3,1.1-2.2,2.7-2.2c1.6,0,2.7,0.8,3.4,2.3l1.7-0.9c-0.9-1.9-2.7-3.2-5-3.2c-1.3,0-2.4,0.4-3.3,1.1
	c-0.9,0.7-1.4,1.7-1.4,3c0,1.1,0.4,1.9,0.9,2.4c0.2,0.3,0.6,0.5,1.1,0.8c0.5,0.2,0.9,0.4,1.2,0.5l1.4,0.5c1.3,0.4,2.2,0.8,2.7,1.1
	c0.5,0.4,0.8,0.9,0.8,1.6c0,1.4-1.1,2.3-3.2,2.3c-2.1,0-3.4-0.9-4-2.7l-1.7,1C318.8,459.6,320.9,461,323.6,461z M311.9,461
	c1.5,0,2.8-0.4,3.7-1.1c1-0.8,1.4-1.8,1.4-3.1c0-0.9-0.2-1.7-0.7-2.2c-0.4-0.4-0.6-0.6-1.2-1c-0.6-0.3-0.7-0.4-1.5-0.7
	c-0.4-0.1-0.6-0.2-0.8-0.3l-0.9-0.3c-1.2-0.4-2-0.7-2.4-1c-0.5-0.3-0.7-0.8-0.7-1.5c0-1.3,1.1-2.2,2.7-2.2c1.6,0,2.7,0.8,3.4,2.3
	l1.7-0.9c-0.9-1.9-2.7-3.2-5-3.2c-1.3,0-2.4,0.4-3.3,1.1c-0.9,0.7-1.4,1.7-1.4,3c0,1.1,0.4,1.9,0.9,2.4c0.2,0.3,0.6,0.5,1.1,0.8
	c0.5,0.2,0.9,0.4,1.2,0.5l1.4,0.5c1.3,0.4,2.2,0.8,2.7,1.1c0.5,0.4,0.8,0.9,0.8,1.6c0,1.4-1.1,2.3-3.2,2.3c-2.1,0-3.4-0.9-4-2.7
	l-1.7,1C307,459.6,309.1,461,311.9,461z M292.8,455.8c0,1.6,0.5,2.8,1.6,3.8c1,0.9,2.4,1.4,4,1.4c1.6,0,3-0.5,4-1.4
	c1-0.9,1.6-2.2,1.6-3.8v-9.7h-2v9.6c0,2.1-1.3,3.4-3.6,3.4c-2.3,0-3.6-1.3-3.6-3.4v-9.6h-2V455.8z M286.1,447.9
	c0.7,0,1.4,0.3,1.9,0.8c0.5,0.5,0.8,1.2,0.8,1.9c0,0.8-0.3,1.4-0.8,1.9c-0.5,0.5-1.1,0.8-1.9,0.8h-4v-5.5H286.1z M291.2,460.7
	l-3.5-5.8c0.9-0.3,1.6-0.9,2.2-1.7c0.6-0.8,0.9-1.7,0.9-2.6c0-1.3-0.4-2.3-1.4-3.2c-0.9-0.9-2-1.3-3.3-1.3h-6v14.6h2v-5.6h3.5
	l3.3,5.6H291.2z M276.9,455.2v-1.8h-7.8v1.8H276.9z M261.6,446.1h-2v14.6h8.4v-1.8h-6.4V446.1z M251.2,446.1h-2v14.6h8.4v-1.8h-6.4
	V446.1z M240.8,448.4l2.7,7.2h-5.3L240.8,448.4z M247.4,460.7l-5.6-14.6h-2.2l-5.6,14.6h2.1l1.2-3.3h6.7l1.2,3.3H247.4z"/>
<path class="st1" d="M623.6,417.9h2v14.3h-2V417.9z M612.3,430.5h3.7c1.3,0,2.2-0.2,2.8-0.6c0.6-0.4,0.9-1,0.9-1.9
	c0-0.6-0.2-1.1-0.5-1.5c-0.3-0.4-0.8-0.7-1.3-0.8c-0.5-0.1-1.5-0.2-2.7-0.2h-2.7V430.5z M610.3,417.9h2v6.1h3.6
	c2.4,0,3.9,0.4,4.7,1.2c0.7,0.8,1.1,1.8,1.1,2.8c0,1.1-0.4,2.1-1.2,2.9c-0.8,0.8-2.3,1.2-4.5,1.2h-5.8V417.9z M602.6,414.4h1.3
	c-0.1,0.8-0.4,1.5-1,1.9c-0.5,0.4-1.2,0.7-2.1,0.7c-0.9,0-1.6-0.2-2.1-0.7c-0.5-0.4-0.8-1.1-1-1.9h1.3c0.1,0.4,0.3,0.8,0.6,1
	c0.3,0.2,0.7,0.3,1.2,0.3c0.6,0,1-0.1,1.3-0.3C602.3,415.2,602.5,414.9,602.6,414.4z M594.9,417.9h1.8v11.3l8.1-11.3h2v14.3h-1.8
	v-11.3l-8.1,11.3h-2V417.9z M579.8,417.9h2l5,8.8l4.3-8.8h2l-5.7,11.1c-0.7,1.4-1.3,2.3-1.8,2.7c-0.5,0.4-1.1,0.6-2,0.6
	c-0.5,0-1.2-0.1-1.9-0.3v-1.6c0.5,0.3,1.1,0.4,1.7,0.4c0.5,0,0.9-0.2,1.3-0.4c0.4-0.3,0.7-1,1.2-2L579.8,417.9z M572.2,432.1v-12.6
	h-5v-1.7h12.1v1.7h-5v12.6H572.2z M553.1,432.1v-14.3h2v5.9h7.9v-5.9h2v14.3h-2v-6.7h-7.9v6.7H553.1z M541.5,426.3h5.2l-1.6-4
	c-0.5-1.2-0.8-2.2-1.1-3c-0.2,0.9-0.5,1.8-0.8,2.7L541.5,426.3z M537.1,432.1l5.8-14.3h2.2l6.2,14.3h-2.3l-1.8-4.3h-6.4l-1.7,4.3
	H537.1z M527.4,430.5h4c1.1,0,1.9-0.2,2.5-0.6c0.5-0.4,0.8-1,0.8-1.9c0-0.6-0.2-1.1-0.5-1.5c-0.3-0.4-0.7-0.7-1.3-0.8
	c-0.6-0.1-1.5-0.2-2.8-0.2h-2.7V430.5z M525.4,417.9h9.9v1.7h-7.9v4.4h3.6c1.3,0,2.4,0.1,3.2,0.4c0.8,0.2,1.4,0.7,1.9,1.4
	c0.5,0.7,0.7,1.4,0.7,2.3c0,0.7-0.2,1.4-0.5,2c-0.3,0.6-0.9,1.1-1.5,1.5c-0.7,0.4-1.8,0.6-3.5,0.6h-6V417.9z M513.8,426.3h5.2
	l-1.6-4c-0.5-1.2-0.8-2.2-1.1-3c-0.2,0.9-0.5,1.8-0.8,2.7L513.8,426.3z M509.4,432.1l5.8-14.3h2.2l6.2,14.3h-2.3l-1.8-4.3h-6.4
	l-1.7,4.3H509.4z M508.5,432.1h-2v-4c0-1.2-0.2-2.1-0.6-2.7c-0.5-0.7-1.3-1.1-2.5-1.1c-1.4,0-2.9,0.3-4.5,0.9v6.9h-2v-14.3h2v5.7
	c1.8-0.6,3.4-0.9,4.8-0.9c1,0,1.8,0.2,2.6,0.6c0.9,0.4,1.5,1.1,1.8,1.9c0.3,0.7,0.4,1.6,0.4,2.8V432.1z M485.6,424.2h-4.3
	c-0.9,0-1.6-0.1-2.2-0.3c-0.5-0.2-0.9-0.5-1.2-0.9c-0.3-0.4-0.4-0.8-0.4-1.3c0-0.7,0.3-1.2,0.8-1.7c0.5-0.4,1.3-0.7,2.5-0.7h4.8
	V424.2z M487.6,432.1v-14.3h-6.8c-1.4,0-2.4,0.1-3.1,0.4c-0.7,0.3-1.3,0.7-1.7,1.4c-0.4,0.6-0.6,1.4-0.6,2.1c0,1,0.4,1.9,1,2.6
	c0.7,0.7,1.8,1.1,3.2,1.3c-0.5,0.2-0.9,0.5-1.2,0.7c-0.6,0.5-1.1,1.1-1.7,1.9l-2.6,3.9h2.5l2-3c0.6-0.9,1.1-1.5,1.5-2
	c0.4-0.5,0.7-0.8,1-1c0.3-0.2,0.6-0.3,0.9-0.4c0.2,0,0.6-0.1,1.1-0.1h2.3v6.3H487.6z M460.3,417.9h1.8v11.3l8.1-11.3h2v14.3h-1.8
	v-11.3l-8.1,11.3h-2V417.9z M444.6,417.9h2v12.6h7.9v-12.6h2v12.6h1.4v5.6h-1.8v-4h-11.6V417.9z M429.2,417.9h1.8v11.3l8.1-11.3h2
	v14.3h-1.8v-11.3l-8.1,11.3h-2V417.9z M420.1,432.1v-12.6h-5v-1.7h12.1v1.7h-5v12.6H420.1z M412.4,427.1l2,0.5
	c-0.4,1.6-1.2,2.7-2.3,3.5c-1.1,0.8-2.4,1.2-4,1.2c-1.6,0-3-0.3-4-0.9c-1-0.6-1.8-1.5-2.3-2.7c-0.5-1.2-0.8-2.5-0.8-3.8
	c0-1.5,0.3-2.8,0.9-3.9c0.6-1.1,1.5-1.9,2.6-2.5c1.1-0.6,2.3-0.9,3.7-0.9c1.5,0,2.8,0.4,3.8,1.1c1,0.7,1.8,1.7,2.2,3.1l-2,0.4
	c-0.4-1-0.9-1.8-1.5-2.3c-0.7-0.5-1.5-0.7-2.5-0.7c-1.2,0-2.1,0.3-2.9,0.8c-0.8,0.5-1.3,1.2-1.7,2.1c-0.3,0.9-0.5,1.8-0.5,2.7
	c0,1.2,0.2,2.3,0.6,3.2c0.4,0.9,1,1.6,1.8,2c0.8,0.4,1.7,0.7,2.6,0.7c1.1,0,2.1-0.3,2.9-0.9C411.6,429.2,412.1,428.3,412.4,427.1z
	 M387.4,432.1v-14.3h11v1.7h-9v4.4h8.4v1.7h-8.4v4.9h9.3v1.7H387.4z M375.1,430.5h3.8c0.7,0,1.1,0,1.4-0.1c0.5-0.1,0.9-0.2,1.2-0.4
	c0.3-0.2,0.6-0.4,0.8-0.8c0.2-0.3,0.3-0.8,0.3-1.2c0-0.5-0.1-1-0.4-1.4c-0.3-0.4-0.7-0.7-1.2-0.8c-0.5-0.2-1.3-0.2-2.2-0.2h-3.5
	V430.5z M375.1,423.9h3.3c0.9,0,1.5-0.1,1.9-0.2c0.5-0.1,0.9-0.4,1.2-0.7c0.3-0.3,0.4-0.7,0.4-1.2c0-0.5-0.1-0.9-0.4-1.3
	c-0.2-0.4-0.6-0.6-1-0.7c-0.5-0.1-1.2-0.2-2.3-0.2h-3V423.9z M373,432.1v-14.3h5.7c1.2,0,2.1,0.1,2.8,0.4c0.7,0.3,1.3,0.7,1.7,1.3
	c0.4,0.6,0.6,1.2,0.6,1.9c0,0.6-0.2,1.2-0.5,1.7c-0.4,0.5-0.9,1-1.6,1.3c0.9,0.3,1.6,0.7,2.1,1.3c0.5,0.6,0.7,1.3,0.7,2.2
	c0,0.7-0.2,1.3-0.5,1.9c-0.3,0.6-0.7,1-1.1,1.3c-0.4,0.3-1,0.5-1.7,0.7c-0.7,0.2-1.5,0.2-2.5,0.2H373z M357.8,432.1v-14.3h2v5.9h7.9
	v-5.9h2v14.3h-2v-6.7h-7.9v6.7H357.8z M342.5,417.9h1.8v11.3l8.1-11.3h2v14.3h-1.8v-11.3l-8.1,11.3h-2V417.9z M328.8,414.4h1.3
	c-0.1,0.8-0.4,1.5-1,1.9c-0.5,0.4-1.2,0.7-2.1,0.7c-0.9,0-1.6-0.2-2.1-0.7c-0.5-0.4-0.8-1.1-1-1.9h1.3c0.1,0.4,0.3,0.8,0.6,1
	c0.3,0.2,0.7,0.3,1.2,0.3c0.6,0,1-0.1,1.3-0.3C328.6,415.2,328.7,414.9,328.8,414.4z M321.2,417.9h1.8v11.3l8.1-11.3h2v14.3h-1.8
	v-11.3l-8.1,11.3h-2V417.9z M316.5,425.6h-9.9c0.1,1.6,0.6,2.9,1.4,3.8c0.9,0.9,2,1.4,3.5,1.4c1.5,0,2.6-0.5,3.5-1.4
	C316,428.5,316.4,427.2,316.5,425.6z M318.6,424.8c0,2.2-0.5,3.9-1.6,5.4c-1.2,1.5-3,2.2-5.4,2.2c-2.4,0-4.2-0.7-5.4-2.2
	c-1.1-1.4-1.7-3.1-1.7-5.4v-0.9h11.9c-0.1-1.4-0.5-2.5-1.3-3.4c-0.9-0.9-2-1.3-3.5-1.3c-2.2,0-3.6,1-4.2,3l-2-0.5
	c0.4-1.4,1.1-2.4,2.2-3.1c1.1-0.7,2.4-1,3.9-1c1.4,0,2.6,0.3,3.7,1c1.1,0.6,2,1.5,2.5,2.7C318.3,422.3,318.6,423.5,318.6,424.8z
	 M300.7,427.1l2,0.5c-0.4,1.6-1.2,2.7-2.3,3.5c-1.1,0.8-2.4,1.2-4,1.2c-1.6,0-3-0.3-4-0.9c-1-0.6-1.8-1.5-2.3-2.7
	c-0.5-1.2-0.8-2.5-0.8-3.8c0-1.5,0.3-2.8,0.9-3.9c0.6-1.1,1.5-1.9,2.6-2.5c1.1-0.6,2.4-0.9,3.7-0.9c1.5,0,2.8,0.4,3.8,1.1
	c1,0.7,1.8,1.7,2.2,3.1l-2,0.4c-0.4-1-0.9-1.8-1.5-2.3c-0.7-0.5-1.5-0.7-2.5-0.7c-1.2,0-2.1,0.3-2.9,0.8c-0.8,0.5-1.3,1.2-1.7,2.1
	c-0.3,0.9-0.5,1.8-0.5,2.7c0,1.2,0.2,2.3,0.6,3.2c0.4,0.9,1,1.6,1.8,2c0.8,0.4,1.7,0.7,2.6,0.7c1.1,0,2.1-0.3,2.9-0.9
	C299.8,429.2,300.4,428.3,300.7,427.1z M285.1,425.6h-9.9c0.1,1.6,0.6,2.9,1.4,3.8c0.9,0.9,2,1.4,3.5,1.4c1.5,0,2.6-0.5,3.5-1.4
	C284.5,428.5,285,427.2,285.1,425.6z M287.2,424.8c0,2.2-0.5,3.9-1.6,5.4c-1.2,1.5-3,2.2-5.4,2.2c-2.4,0-4.2-0.7-5.4-2.2
	c-1.1-1.4-1.7-3.1-1.7-5.4v-0.9H285c-0.1-1.4-0.5-2.5-1.3-3.4c-0.9-0.9-2-1.3-3.5-1.3c-2.2,0-3.6,1-4.2,3l-2-0.5
	c0.4-1.4,1.1-2.4,2.2-3.1c1.1-0.7,2.4-1,3.9-1c1.4,0,2.6,0.3,3.7,1c1.1,0.6,2,1.5,2.5,2.7C286.9,422.3,287.2,423.5,287.2,424.8z
	 M261.6,424.6h3.9c1.3,0,2.2-0.2,2.8-0.7c0.5-0.5,0.8-1.1,0.8-1.9c0-0.6-0.2-1.1-0.5-1.5c-0.3-0.4-0.8-0.7-1.3-0.8
	c-0.3-0.1-1-0.1-1.9-0.1h-3.9V424.6z M259.6,432.1v-14.3h5.8c1,0,1.8,0,2.3,0.1c0.7,0.1,1.4,0.3,1.9,0.7c0.5,0.3,0.9,0.8,1.2,1.4
	c0.3,0.6,0.5,1.2,0.5,1.9c0,1.2-0.4,2.2-1.2,3.1c-0.8,0.8-2.3,1.3-4.5,1.3h-3.9v5.8H259.6z M248.9,425.6h-9.9
	c0.1,1.6,0.6,2.9,1.4,3.8c0.9,0.9,2,1.4,3.5,1.4c1.5,0,2.6-0.5,3.5-1.4C248.4,428.5,248.9,427.2,248.9,425.6z M251,424.8
	c0,2.2-0.5,3.9-1.6,5.4c-1.2,1.5-3,2.2-5.4,2.2c-2.4,0-4.2-0.7-5.4-2.2c-1.1-1.4-1.7-3.1-1.7-5.4v-0.9h11.9
	c-0.1-1.4-0.5-2.5-1.3-3.4c-0.9-0.9-2-1.3-3.5-1.3c-2.2,0-3.6,1-4.2,3l-2-0.5c0.4-1.4,1.1-2.4,2.2-3.1c1.1-0.7,2.4-1,3.9-1
	c1.4,0,2.6,0.3,3.7,1c1.1,0.6,2,1.5,2.5,2.7C250.7,422.3,251,423.5,251,424.8z M228.5,432.1v-12.6h-5v-1.7h12.1v1.7h-5v12.6H228.5z
	 M219.9,425.8h-10.4c0.1,1.3,0.6,2.5,1.4,3.4c1,1,2.2,1.6,3.8,1.6c1.5,0,2.8-0.5,3.7-1.4C219.2,428.4,219.7,427.3,219.9,425.8z
	 M219.9,424.2c-0.1-1.4-0.6-2.5-1.4-3.4c-1-1-2.2-1.5-3.8-1.5c-1.5,0-2.7,0.5-3.8,1.4c-0.8,0.8-1.3,1.9-1.5,3.5H219.9z M222,425
	c0,2.1-0.6,3.9-1.9,5.2c-1.3,1.4-3.1,2.1-5.4,2.1c-1.4,0-2.7-0.3-3.9-1c-1.2-0.7-2.1-1.6-2.6-2.8c-0.5-1.1-0.8-2.2-0.8-3.3
	c0-2.2,0.6-4,1.9-5.4c1.3-1.5,3.1-2.2,5.5-2.2c2.3,0,4.1,0.7,5.4,2.1C221.4,421.1,222,422.9,222,425z M196.2,430.5h4
	c1.1,0,1.9-0.2,2.5-0.6c0.5-0.4,0.8-1,0.8-1.9c0-0.6-0.2-1.1-0.5-1.5c-0.3-0.4-0.7-0.7-1.3-0.8c-0.6-0.1-1.5-0.2-2.8-0.2h-2.7V430.5
	z M194.2,417.9h9.9v1.7h-7.9v4.4h3.6c1.3,0,2.4,0.1,3.2,0.4c0.8,0.2,1.4,0.7,1.9,1.4c0.5,0.7,0.7,1.4,0.7,2.3c0,0.7-0.2,1.4-0.5,2
	c-0.3,0.6-0.9,1.1-1.5,1.5c-0.7,0.4-1.8,0.6-3.5,0.6h-6V417.9z"/>
</svg>
