<?xml version="1.0" encoding="utf-8"?>
<!-- Generator: Adobe Illustrator 22.1.0, SVG Export Plug-In . SVG Version: 6.00 Build 0)  -->
<svg version="1.1" id="Слой_1" xmlns="http://www.w3.org/2000/svg" xmlns:xlink="http://www.w3.org/1999/xlink" x="0px" y="0px"
	 viewBox="0 0 155 72.4" style="enable-background:new 0 0 155 72.4;" xml:space="preserve">
<style type="text/css">
	.st0{fill:#232F4F;}
	.st1{clip-path:url(#SVGID_2_);fill:url(#SVGID_3_);}
	.st2{clip-path:url(#SVGID_5_);fill:url(#SVGID_6_);}
	.st3{clip-path:url(#SVGID_8_);fill:url(#SVGID_9_);}
	.st4{clip-path:url(#SVGID_11_);fill:url(#SVGID_12_);}
	.st5{clip-path:url(#SVGID_14_);fill:url(#SVGID_15_);}
	.st6{clip-path:url(#SVGID_17_);fill:url(#SVGID_18_);}
</style>
<path class="st0" d="M79.2,39.8c5.9-0.2,11.7,3.6,11.7,11.4c0,4.1-3.5,7.4-7.6,7.4s-7.6-3.3-7.6-7.4c0-1.5,0.3-3,2-3s2.3,1.5,2.3,3
	c0,5,7.1,3.8,7.1-1c0-3.3-3.1-7.4-8.1-7.3c-3.5,0-6.3,2.8-6.3,6.3c0,10.2,0,12.1,0,22.5H71h-1.7c0-8.9,0-12.4,0-21.3
	c0-1.3-1-2.3-2.3-2.3s-2.3,1-2.3,2.3c0,0.3,0.3,0.7,0.7,0.7c0.3,0,0.7-0.3,0.7-0.7c0-0.5,0.5-1,1-1c0.7,0,1,0.5,1,1
	c0,1.5-1.3,2.8-2.8,2.8s-2.8-1.2-2.8-2.8c0-4,4.1-5.1,6.8-3.6C70.7,42,75.2,40,79.2,39.8"/>
<path class="st0" d="M50.7,67.9l-6.4-13.1h4l4.3,9.4l3.5-9.4h3.5l-4.8,12.1c-0.8,2-1.7,3.5-2.6,4.1c-1,0.7-2,1-3.1,1
	c-1.8,0-3.5-0.8-5-2.5l2.3-2.1c0.8,1,1.8,1.5,2.6,1.5c0.3,0,0.7-0.2,1-0.3C50.1,68.6,50.4,68.4,50.7,67.9 M29.9,59.5l-2.3,5.8h4.6
	L29.9,59.5z M28.3,55h3.3l6.6,16.9h-3.5l-1.3-3.5h-6.9L25,71.9h-3.5L28.3,55z M4.5,67.4c1.2,1.2,2.5,1.8,4.1,1.8
	c1,0,1.8-0.2,2.5-0.7s1-1,1-1.7s-0.3-1.3-1-1.7c-0.7-0.7-2-0.8-4-0.8h-1v-2.8h1c1.2,0,2-0.2,2.6-0.7c0.7-0.3,0.8-1,0.8-1.5
	c0-0.7-0.3-1.2-0.8-1.5s-1.2-0.5-2-0.5c-1,0-2,0.3-3,1l-2.6-2.1c1.3-1,2.5-1.5,3.5-1.7c1.2-0.2,2-0.2,2.8-0.2c1.8,0,3.5,0.3,4.8,1.2
	s2,1.8,2,3.3c0,0.7-0.2,1.2-0.5,1.8c-0.3,0.5-1.2,1.2-2.5,1.8c2.6,0.8,4.1,2.3,4.1,4.5c0,1.5-0.7,2.8-2.1,3.8s-3.3,1.5-5.6,1.5
	c-1.5,0-2.6-0.2-3.8-0.5s-2.3-1.2-3.6-2.5L4.5,67.4z"/>
<path class="st0" d="M145.6,55h9.4v3.1h-6.3v3h6.3v3.1h-6.3v4.5h6.3v3.1h-9.4V55z M132.9,64.1v4.6h0.8c1.3,0,2.3-0.2,2.8-0.5
	s0.7-0.8,0.7-1.7c0-1.7-1.2-2.3-3.6-2.3L132.9,64.1L132.9,64.1z M129.6,71.9V55h3.3v6.3h0.7c1.3,0,2.5,0.2,3.5,0.5s1.7,0.8,2.3,1.8
	c0.7,0.8,1,2,1,3.1c0,1.2-0.3,2.1-0.8,3s-1.3,1.3-2,1.7c-0.8,0.3-1.8,0.5-3.1,0.5L129.6,71.9z M120.6,71.9l-4.8-12.4l-5,12.4h-3.5
	l6.8-16.9h3.3l6.6,16.9H120.6z M95.2,59.5l-2.3,5.8h4.6L95.2,59.5z M93.4,55h3.3l6.6,16.9h-3.5l-1.3-3.5h-7.1l-1.5,3.5h-3.5L93.4,55
	z"/>
<g>
	<g>
		<g>
			<defs>
				<path id="SVGID_1_" d="M16.9,51.1H0C16.5,25.6,36,10.4,57,0c3.8,2,4.8,2.5,8.4,4.5C47.6,14.7,31.1,29.1,16.9,51.1"/>
			</defs>
			<clipPath id="SVGID_2_">
				<use xlink:href="#SVGID_1_"  style="overflow:visible;"/>
			</clipPath>
			
				<linearGradient id="SVGID_3_" gradientUnits="userSpaceOnUse" x1="-0.8482" y1="-9.1245" x2="73.099" y2="-71.9011" gradientTransform="matrix(1 0 0 1 0 63.1548)">
				<stop  offset="0" style="stop-color:#DADADA"/>
				<stop  offset="1" style="stop-color:#FFFFFF"/>
			</linearGradient>
			<rect class="st1" width="65.4" height="51.1"/>
		</g>
	</g>
</g>
<g>
	<g>
		<g>
			<defs>
				<path id="SVGID_4_" d="M78.8,28.1c6.1,6.4,12.6,14.4,18,23h16.9c-7.9-12.4-16.7-22.5-26-30.6L78.8,28.1z"/>
			</defs>
			<clipPath id="SVGID_5_">
				<use xlink:href="#SVGID_4_"  style="overflow:visible;"/>
			</clipPath>
			
				<linearGradient id="SVGID_6_" gradientUnits="userSpaceOnUse" x1="86.4652" y1="-41.1127" x2="107.5505" y2="-11.6165" gradientTransform="matrix(1 0 0 1 0 63.1548)">
				<stop  offset="0" style="stop-color:#009640"/>
				<stop  offset="1" style="stop-color:#005B23"/>
			</linearGradient>
			<rect x="78.8" y="20.5" class="st2" width="35" height="30.6"/>
		</g>
	</g>
</g>
<g>
	<g>
		<g>
			<defs>
				<path id="SVGID_7_" d="M37.3,51.1h-17c16.5-25.4,36-40.7,57-51.1c3.8,2,4.8,2.5,8.4,4.5C68.1,14.7,51.6,29.1,37.3,51.1"/>
			</defs>
			<clipPath id="SVGID_8_">
				<use xlink:href="#SVGID_7_"  style="overflow:visible;"/>
			</clipPath>
			
				<linearGradient id="SVGID_9_" gradientUnits="userSpaceOnUse" x1="78.8838" y1="-59.1499" x2="18.3545" y2="-8.7666" gradientTransform="matrix(1 0 0 1 0 63.1548)">
				<stop  offset="0" style="stop-color:#005CA9"/>
				<stop  offset="1" style="stop-color:#003762"/>
			</linearGradient>
			<rect x="20.3" class="st3" width="65.4" height="51.1"/>
		</g>
	</g>
</g>
<g>
	<g>
		<g>
			<defs>
				<path id="SVGID_10_" d="M89.4,18.8c10.1,8.4,19.3,18.8,27.9,32.1h16.9C123.3,34,111,21.6,98,12.2L89.4,18.8z"/>
			</defs>
			<clipPath id="SVGID_11_">
				<use xlink:href="#SVGID_10_"  style="overflow:visible;"/>
			</clipPath>
			
				<linearGradient id="SVGID_12_" gradientUnits="userSpaceOnUse" x1="133.0515" y1="-9.4663" x2="80.4044" y2="-63.8154" gradientTransform="matrix(1 0 0 1 0 63.1548)">
				<stop  offset="0" style="stop-color:#ECECEC"/>
				<stop  offset="1" style="stop-color:#FFFFFF"/>
			</linearGradient>
			<rect x="89.4" y="12.4" class="st4" width="44.8" height="38.7"/>
		</g>
	</g>
</g>
<g>
	<g>
		<g>
			<defs>
				<path id="SVGID_13_" d="M57.7,51.1H40.8c16.4-25.4,36-40.7,57-51.1c3.8,2,4.8,2.5,8.4,4.5C88.4,14.7,71.9,29.1,57.7,51.1"/>
			</defs>
			<clipPath id="SVGID_14_">
				<use xlink:href="#SVGID_13_"  style="overflow:visible;"/>
			</clipPath>
			
				<linearGradient id="SVGID_15_" gradientUnits="userSpaceOnUse" x1="98.1443" y1="-60.9323" x2="41.5478" y2="-7.3598" gradientTransform="matrix(1 0 0 1 0 63.1548)">
				<stop  offset="0" style="stop-color:#E44E2F"/>
				<stop  offset="1" style="stop-color:#B8240E"/>
			</linearGradient>
			<rect x="40.8" class="st5" width="65.4" height="51.1"/>
		</g>
	</g>
</g>
<g>
	<g>
		<g>
			<defs>
				<path id="SVGID_16_" d="M99.5,11.1c13.9,9.6,26.6,22.1,38.2,40h16.9C141,29.7,125.1,15.7,108.1,5.6
					C105.4,7.3,102.5,9.1,99.5,11.1z"/>
			</defs>
			<clipPath id="SVGID_17_">
				<use xlink:href="#SVGID_16_"  style="overflow:visible;"/>
			</clipPath>
			
				<linearGradient id="SVGID_18_" gradientUnits="userSpaceOnUse" x1="115.8842" y1="-48.9355" x2="170.2168" y2="19.8891" gradientTransform="matrix(1 0 0 1 0 63.1548)">
				<stop  offset="0" style="stop-color:#009FE3"/>
				<stop  offset="1" style="stop-color:#005CA9"/>
			</linearGradient>
			<rect x="99.5" y="5.6" class="st6" width="55" height="45.4"/>
		</g>
	</g>
</g>
</svg>
