<?xml version="1.0" encoding="utf-8"?>
<!-- Generator: Adobe Illustrator 22.1.0, SVG Export Plug-In . SVG Version: 6.00 Build 0)  -->
<svg version="1.1" id="Слой_1" xmlns="http://www.w3.org/2000/svg" xmlns:xlink="http://www.w3.org/1999/xlink" x="0px" y="0px"
	 viewBox="0 0 3388.7 100.6" style="enable-background:new 0 0 3388.7 100.6;" xml:space="preserve">
<g>
	<defs>
		<path id="SVGID_1_" d="M0,77.8c17.8-2.9,34.5-11.2,46.3-24.2v-0.3c23.2,24.5,64.5,33.8,97.6,17.9c20-17.3,6-39.4-17.7-44.1
			c-7.6-0.6-11.9-0.1-19.3,2.2c7.4-27,37.1-37,63.8-22.5l6.4,5.1c17-11.7,32.2-15.3,52.7-8c12.4,5.8,16.5,13.3,19.8,24.9
			c-30.5-10.6-66.5,18.1-39.8,42c31.7,15.7,73.5,8.3,96.5-16.9v-0.2c23.2,24.3,64.3,33.5,97.3,17.6c20-17.3,6-39.4-17.7-44.1
			c-7.6-0.6-11.9-0.1-19.3,2.2c7.4-27,37.1-37,63.8-22.5l6.4,5.1c17-11.7,32.2-15.3,52.7-8C501.9,9.6,506,17,509.4,28.7
			c-30.5-10.6-66.5,18.1-39.8,42c31.8,15.7,73.7,8.2,96.7-17.1v-0.3c23.2,24.5,64.5,33.8,97.6,17.9c20-17.3,6-39.4-17.7-44.1
			c-7.6-0.6-11.9-0.1-19.3,2.2c7.4-27,37.1-37,63.8-22.5l6.4,5.1c17-11.7,32.2-15.3,52.7-8c12.4,5.8,16.5,13.3,19.8,24.9
			c-30.5-10.6-66.5,18.1-39.8,42c31.7,15.7,73.5,8.3,96.5-16.9v-0.2c23.2,24.3,64.3,33.5,97.3,17.6c20-17.3,6-39.4-17.7-44.1
			c-7.6-0.6-11.9-0.1-19.3,2.2c7.4-27,37.1-37,63.8-22.5l6.4,5.1c17-11.7,32.2-15.3,52.7-8c12.4,5.8,16.5,13.3,19.8,24.9
			c-30.5-10.6-66.5,18.1-39.8,42c31.8,15.7,73.7,8.2,96.7-17.1v-0.3c23.2,24.5,64.5,33.8,97.6,17.9c20-17.3,6-39.4-17.7-44.1
			c-7.6-0.6-11.9-0.1-19.3,2.2c7.4-27,37.1-37,63.8-22.5l6.4,5.1c17-11.7,32.2-15.3,52.7-8c12.4,5.8,16.5,13.3,19.8,24.9
			c-30.5-10.6-66.5,18.1-39.8,42c31.7,15.7,73.5,8.3,96.5-16.9v-0.2c23.2,24.3,64.3,33.5,97.3,17.6c20-17.3,6-39.4-17.7-44.1
			c-7.6-0.6-11.9-0.1-19.3,2.2c7.4-27,37.1-37,63.8-22.5l6.4,5.1c17-11.7,32.2-15.3,52.7-8c12.4,5.8,16.5,13.3,19.8,24.9
			c-30.5-10.6-66.5,18.1-39.8,42c31.8,15.7,73.7,8.2,96.7-17.1v-0.3c23.2,24.5,64.5,33.8,97.6,17.9c20-17.3,6-39.4-17.7-44.1
			c-7.6-0.6-11.9-0.1-19.3,2.2c7.4-27,37.1-37,63.8-22.5l6.4,5.1c17-11.7,32.2-15.3,52.7-8c12.4,5.8,16.5,13.3,19.8,24.9
			c-30.5-10.6-66.5,18.1-39.8,42c31.7,15.7,73.5,8.3,96.5-16.9v-0.2c23.2,24.3,64.3,33.5,97.3,17.6c20-17.3,6-39.4-17.7-44.1
			c-7.6-0.6-11.9-0.1-19.3,2.2c7.4-27,37.1-37,63.8-22.5l6.4,5.1c17-11.7,32.2-15.3,52.7-8c12.4,5.8,16.5,13.3,19.8,24.9
			c-30.5-10.6-66.5,18.1-39.8,42c31.8,15.7,73.7,8.2,96.7-17.1v-0.3c23.2,24.5,64.5,33.8,97.6,17.9c20-17.3,6-39.4-17.7-44.1
			c-7.6-0.6-11.9-0.1-19.3,2.2c7.4-27,37.1-37,63.8-22.5l6.4,5.1c17-11.7,32.2-15.3,52.7-8c12.4,5.8,16.5,13.3,19.8,24.9
			c-30.5-10.6-66.5,18.1-39.8,42c31.7,15.7,73.5,8.3,96.5-16.9v-0.2c23.2,24.3,64.3,33.5,97.3,17.6c20-17.3,6-39.4-17.7-44.1
			c-7.6-0.6-11.9-0.1-19.3,2.2c7.4-27,37.1-37,63.8-22.5l6.4,5.1c17-11.7,32.2-15.3,52.7-8c12.4,5.8,16.5,13.3,19.8,24.9
			c-30.5-10.6-66.5,18.1-39.8,42c31.8,15.7,73.7,8.2,96.7-17.1v-0.3c23.2,24.5,64.5,33.8,97.6,17.9c20-17.3,6-39.4-17.7-44.1
			c-7.6-0.6-11.9-0.1-19.3,2.2c7.4-27,37.1-37,63.8-22.5l6.4,5.1c17-11.7,32.2-15.3,52.7-8c12.4,5.8,16.5,13.3,19.8,24.9
			c-30.5-10.6-66.5,18.1-39.8,42c31.7,15.7,73.5,8.3,96.5-16.9v-0.2c23.2,24.3,64.3,33.5,97.3,17.6c20-17.3,6-39.4-17.7-44.1
			c-7.6-0.6-11.9-0.1-19.3,2.2c7.4-27,37.1-37,63.8-22.5l6.4,5.1c17-11.7,32.2-15.3,52.7-8c12.4,5.8,16.5,13.3,19.8,24.9
			c-30.5-10.6-66.5,18.1-39.8,42c31.8,15.7,73.7,8.2,96.7-17.1v-0.3c23.2,24.5,64.5,33.8,97.6,17.9c20-17.3,6-39.4-17.7-44.1
			c-7.6-0.6-11.9-0.1-19.3,2.2c7.4-27,37.1-37,63.8-22.5l6.4,5.1c17-11.7,32.2-15.3,52.7-8c12.4,5.8,16.5,13.3,19.8,24.9
			c-30.5-10.6-66.5,18.1-39.8,42c18.3,9.1,39.9,10.4,59.4,5.1v24.8h-222.9h0H2906h0h-260h0H2386h0h-260h0h-259.9h0h-260h0h-259.9h0
			h-260h0H826.3h0h-260h0H306.4h0h-260h0H0V77.8z"/>
	</defs>
	<use xlink:href="#SVGID_1_"  style="overflow:visible;fill-rule:evenodd;clip-rule:evenodd;fill:#02843D;"/>
	<clipPath id="SVGID_2_">
		<use xlink:href="#SVGID_1_"  style="overflow:visible;"/>
	</clipPath>
</g>
</svg>
